name C:\Users\u0101727\Documents\MyRepositories\upper-imu-dc\Results\main_tracking\Case_48\kinematics_filtered.mot
datacolumns 10
datarows 37
range 4.55000000 4.91000000
endheader 
time	clav_prot	clav_elev	scapula_abduction	scapula_elevation	scapula_upward_rot	scapula_winging	plane_elv	shoulder_elv	axial_rot	
          4.55000000	        -35.17627338	          5.42656725	        -14.83838066	         -3.73452042	         44.01288482	         -6.59931358	         -3.23204106	         59.97308442	          9.81514774	
          4.56000000	        -35.25675654	          5.51637292	        -14.78972310	         -3.70688841	         44.27894691	         -6.69514752	         -3.11129502	         60.21231662	          9.83034685	
          4.57000000	        -35.33727714	          5.60428273	        -14.74213973	         -3.67996989	         44.54262966	         -6.78975721	         -2.98840457	         60.45243524	          9.83740619	
          4.58000000	        -35.41782837	          5.69025877	        -14.69571152	         -3.65378476	         44.80381067	         -6.88312384	         -2.86325659	         60.69319948	          9.83768467	
          4.59000000	        -35.49839091	          5.77428953	        -14.65047921	         -3.62833807	         45.06240422	         -6.97523773	         -2.73577046	         60.93435719	          9.83262571	
          4.60000000	        -35.57893887	          5.85639355	        -14.60645820	         -3.60361732	         45.31835617	         -7.06610046	         -2.60589048	         61.17565244	          9.82366647	
          4.61000000	        -35.65944612	          5.93662027	        -14.56365626	         -3.57959136	         45.57163513	         -7.15572593	         -2.47357566	         61.41683331	          9.81214974	
          4.62000000	        -35.73989233	          6.01504845	        -14.52209196	         -3.55621069	         45.82222093	         -7.24414045	         -2.33878794	         61.65765949	          9.79924358	
          4.63000000	        -35.82026802	          6.09178227	        -14.48181204	         -3.53340930	         46.07009156	         -7.33138171	         -2.20148015	         61.89790955	          9.78587302	
          4.64000000	        -35.90057818	          6.16694585	        -14.44290561	         -3.51110755	         46.31521041	         -7.41749692	         -2.06158493	         62.13738750	          9.77266841	
          4.65000000	        -35.98084389	          6.24067676	        -14.40551350	         -3.48921584	         46.55751501	         -7.50254033	         -1.91900601	         62.37592847	          9.75993416	
          4.66000000	        -36.06110186	          6.31311929	        -14.36983169	         -3.46763855	         46.79690903	         -7.58657032	         -1.77361276	         62.61340284	          9.74764048	
          4.67000000	        -36.14140185	          6.38441823	        -14.33610810	         -3.44627800	         47.03325818	         -7.66964640	         -1.62523878	         62.84971870	          9.73543929	
          4.68000000	        -36.22180226	          6.45471343	        -14.30463303	         -3.42503800	         47.26639087	         -7.75182627	         -1.47368480	         63.08482225	          9.72270347	
          4.69000000	        -36.30236425	          6.52413561	        -14.27572387	         -3.40382699	         47.49610347	         -7.83316324	         -1.31872584	         63.31869606	          9.70858628	
          4.70000000	        -36.38314498	          6.59280328	        -14.24970525	         -3.38256048	         47.72216983	         -7.91370391	         -1.16012216	         63.55135520	          9.69209634	
          4.71000000	        -36.46419052	          6.66082060	        -14.22688647	         -3.36116318	         47.94435422	         -7.99348639	         -0.99763317	         63.78284165	          9.67218153	
          4.72000000	        -36.54552917	          6.72827598	        -14.20753769	         -3.33957065	         48.16242646	         -8.07253884	         -0.83103332	         64.01321720	          9.64781531	
          4.73000000	        -36.62716574	          6.79524119	        -14.19186734	         -3.31773078	         48.37617815	         -8.15087856	         -0.66012855	         64.24255533	          9.61807853	
          4.74000000	        -36.70907756	          6.86177080	        -14.18000245	         -3.29560492	         48.58543857	         -8.22851163	         -0.48477189	         64.47093231	          9.58223114	
          4.75000000	        -36.79121256	          6.92790239	        -14.17197397	         -3.27316855	         48.79008916	         -8.30543336	         -0.30487661	         64.69841782	          9.53976917	
          4.76000000	        -36.87348992	          6.99365752	        -14.16770847	         -3.25041125	         48.99007542	         -8.38162956	         -0.12042578	         64.92506551	          9.49046402	
          4.77000000	        -36.95580321	          7.05904407	        -14.16702704	         -3.22733572	         49.18541554	         -8.45707880	          0.06852287	         65.15090382	          9.43438215	
          4.78000000	        -37.03802582	          7.12405999	        -14.16965160	         -3.20395553	         49.37620521	         -8.53175560	          0.26183690	         65.37592783	          9.37188503	
          4.79000000	        -37.12001810	          7.18869853	        -14.17521760	         -3.18029183	         49.56261851	         -8.60563440	          0.45931380	         65.60009288	          9.30361012	
          4.80000000	        -37.20163547	          7.25295475	        -14.18329184	         -3.15636888	         49.74490494	         -8.67869383	          0.66068944	         65.82331086	          9.23043540	
          4.81000000	        -37.28273635	          7.31683247	        -14.19339297	         -3.13220909	         49.92338310	         -8.75092090	          0.86564884	         66.04545007	          9.15343079	
          4.82000000	        -37.36318920	          7.38035096	        -14.20501261	         -3.10782800	         50.09843166	         -8.82231448	          1.07383796	         66.26633929	          9.07380086	
          4.83000000	        -37.44287768	          7.44355022	        -14.21763442	         -3.08323007	         50.27047838	         -8.89288752	          1.28487460	         66.48577618	          8.99282379	
          4.84000000	        -37.52170333	          7.50649383	        -14.23074939	         -3.05840585	         50.43998793	         -8.96266760	          1.49835730	         66.70353996	          8.91179163	
          4.85000000	        -37.59958569	          7.56926867	        -14.24386581	         -3.03333119	         50.60744957	         -9.03169545	          1.71387122	         66.91940734	          8.83195608	
          4.86000000	        -37.67645989	          7.63198093	        -14.25651380	         -3.00796888	         50.77336505	         -9.10002158	          1.93099058	         67.13317048	          8.75448353	
          4.87000000	        -37.75227230	          7.69474864	        -14.26824457	         -2.98227269	         50.93823751	         -9.16770133	          2.14927832	         67.34465525	          8.68042123	
          4.88000000	        -37.82697525	          7.75769108	        -14.27862616	         -2.95619349	         51.10256143	         -9.23478869	          2.36828357	         67.55373764	          8.61067532	
          4.89000000	        -37.90052151	          7.82091636	        -14.28723725	         -2.92968682	         51.26681382	         -9.30132985	          2.58753870	         67.76035659	          8.54599997	
          4.90000000	        -37.97285982	          7.88450833	        -14.29366148	         -2.90272108	         51.43144633	         -9.36735713	          2.80655727	         67.96452138	          8.48699585	
          4.91000000	        -38.04393193	          7.94851437	        -14.29748415	         -2.87528524	         51.59687820	         -9.43288404	          3.02483449	         68.16631253	          8.43411572	
